<svg xmlns="http://www.w3.org/2000/svg" width="1200" height="800" viewBox="0 0 1200 800"><path fill="white" fill-rule="evenodd" d="M574.0,97.5L574.5,97.0L631.5,97.0L632.5,98.0L641.5,98.0L642.5,99.0L647.5,99.0L650.0,101.5L650.0,103.5L651.0,104.5L651.0,111.5L652.0,112.5L652.0,131.5L651.0,132.5L651.0,133.5L652.0,134.5L651.0,135.5L651.0,138.5L650.0,139.5L650.0,143.5L649.0,144.5L649.0,147.5L648.0,148.5L648.0,151.5L647.0,152.5L647.0,154.5L646.0,155.5L646.0,157.5L645.0,158.5L645.0,160.5L644.0,161.5L644.0,162.5L643.0,163.5L643.0,164.5L642.0,165.5L642.0,166.5L641.0,167.5L641.0,168.5L640.0,169.5L640.0,170.5L639.0,171.5L639.0,172.5L637.0,174.5L637.0,175.5L635.0,177.5L635.0,178.5L634.0,179.5L634.0,180.5L632.0,182.5L632.0,183.5L631.5,184.0L630.5,184.0L630.0,184.5L630.0,185.5L624.0,191.5L624.0,192.5L623.0,193.5L623.0,194.5L624.0,195.5L623.0,196.5L623.0,225.5L621.0,227.5L621.0,308.5L620.0,309.5L620.0,340.5L621.0,341.5L621.0,395.5L620.0,396.5L620.0,397.5L621.0,398.5L621.0,459.5L620.0,460.5L620.0,491.5L619.0,492.5L619.0,546.5L620.0,547.5L620.0,549.5L621.0,550.5L621.0,551.5L621.5,552.0L622.5,552.0L624.5,554.0L627.5,554.0L628.5,555.0L633.5,555.0L634.5,556.0L644.5,556.0L645.5,557.0L655.5,557.0L656.5,558.0L668.5,558.0L670.0,559.5L670.0,561.5L669.0,562.5L669.0,571.5L670.0,572.5L670.0,586.5L671.0,587.5L671.0,588.5L670.0,589.5L670.0,591.5L671.0,592.5L671.0,645.5L670.0,646.5L670.0,653.5L669.0,654.5L669.0,659.5L668.0,660.5L668.0,663.5L667.0,664.5L667.0,666.5L666.0,667.5L666.0,669.5L665.0,670.5L665.0,672.5L664.0,673.5L664.0,674.5L663.0,675.5L663.0,677.5L661.0,679.5L661.0,681.5L660.0,682.5L660.0,683.5L658.0,685.5L658.0,686.5L656.0,688.5L656.0,689.5L655.0,690.5L655.0,691.5L651.0,695.5L651.0,696.5L643.0,704.5L643.0,705.5L642.5,706.0L641.5,706.0L635.5,712.0L634.5,712.0L631.5,715.0L630.5,715.0L629.5,716.0L628.5,716.0L625.5,719.0L624.5,719.0L623.5,720.0L622.5,720.0L621.5,721.0L620.5,721.0L619.5,722.0L618.5,722.0L617.5,723.0L616.5,723.0L615.5,724.0L614.5,724.0L613.5,725.0L612.5,725.0L611.5,726.0L609.5,726.0L608.5,727.0L604.5,727.0L602.5,725.0L600.5,725.0L599.5,724.0L598.5,724.0L597.5,723.0L596.5,723.0L594.5,721.0L593.5,721.0L592.5,720.0L591.5,720.0L590.5,719.0L589.5,719.0L588.5,718.0L587.5,718.0L585.5,716.0L584.5,716.0L583.5,715.0L582.5,715.0L582.0,714.5L582.0,713.5L581.5,713.0L580.5,713.0L575.5,708.0L574.5,708.0L564.0,697.5L564.0,696.5L561.0,693.5L561.0,692.5L559.0,690.5L559.0,689.5L557.0,687.5L557.0,686.5L556.0,685.5L556.0,684.5L554.0,682.5L554.0,681.5L553.0,680.5L553.0,678.5L552.0,677.5L552.0,676.5L551.0,675.5L551.0,674.5L550.0,673.5L550.0,671.5L549.0,670.5L549.0,668.5L548.0,667.5L548.0,664.5L547.0,663.5L547.0,660.5L546.0,659.5L546.0,655.5L545.0,654.5L545.0,647.5L544.0,646.5L544.0,595.5L545.0,594.5L545.0,593.5L544.0,592.5L545.0,591.5L545.0,574.5L546.0,573.5L546.0,563.5L544.0,561.5L546.5,559.0L562.5,559.0L563.5,558.0L571.5,558.0L572.5,557.0L575.5,557.0L576.5,556.0L581.5,556.0L582.5,555.0L587.5,555.0L588.5,554.0L591.5,554.0L593.5,552.0L594.5,552.0L595.0,551.5L595.0,550.5L596.0,549.5L596.0,548.5L597.0,547.5L597.0,544.5L598.0,543.5L598.0,482.5L597.0,481.5L597.0,440.5L598.0,439.5L598.0,430.5L597.0,429.5L597.0,379.5L598.0,378.5L598.0,367.5L597.0,366.5L597.0,260.5L596.0,259.5L596.0,246.5L597.0,245.5L597.0,244.5L596.0,243.5L596.0,226.5L595.0,225.5L595.0,191.5L594.0,190.5L594.0,189.5L591.0,186.5L591.0,185.5L588.0,182.5L588.0,181.5L586.0,179.5L586.0,178.5L585.0,177.5L585.0,176.5L584.5,176.0L583.5,176.0L583.0,175.5L583.0,174.5L582.0,173.5L582.0,172.5L581.0,171.5L581.0,170.5L580.0,169.5L580.0,168.5L579.0,167.5L579.0,166.5L578.0,165.5L578.0,163.5L577.0,162.5L577.0,161.5L576.0,160.5L576.0,158.5L575.0,157.5L575.0,155.5L574.0,154.5L574.0,151.5L573.0,150.5L573.0,148.5L572.0,147.5L572.0,142.5L571.0,141.5L571.0,137.5L570.0,136.5L570.0,111.5L571.0,110.5L571.0,105.5L572.0,104.5L572.0,100.5L573.0,99.5L573.0,98.5L574.0,97.5L574.0,97.5ZM588.5,121.0L587.5,122.0L582.5,122.0L581.5,123.0L580.5,123.0L580.0,123.5L580.0,133.5L581.0,134.5L581.0,136.5L582.0,137.5L582.0,140.5L583.0,141.5L583.0,144.5L584.0,145.5L584.0,147.5L585.0,148.5L585.0,150.5L586.0,151.5L586.0,152.5L587.0,153.5L587.0,154.5L588.0,155.5L588.0,157.5L589.0,158.5L589.0,159.5L591.0,161.5L591.0,162.5L592.0,163.5L592.0,164.5L594.0,166.5L594.0,167.5L595.0,168.5L595.0,169.5L598.0,172.5L598.0,173.5L604.5,180.0L605.5,180.0L606.5,181.0L613.5,181.0L614.5,180.0L615.5,180.0L620.0,175.5L620.0,174.5L624.0,170.5L624.0,169.5L627.0,166.5L627.0,165.5L629.0,163.5L629.0,161.5L631.0,159.5L631.0,158.5L633.0,156.5L633.0,155.5L634.0,154.5L634.0,153.5L635.0,152.5L635.0,150.5L636.0,149.5L636.0,148.5L637.0,147.5L637.0,145.5L638.0,144.5L638.0,142.5L639.0,141.5L639.0,138.5L640.0,137.5L640.0,134.5L641.0,133.5L641.0,127.5L642.0,126.5L641.0,125.5L641.0,124.5L639.5,123.0L634.5,123.0L633.5,122.0L589.5,122.0L588.5,121.0L588.5,121.0Z"/></svg>