<svg xmlns="http://www.w3.org/2000/svg" width="900" height="900" viewBox="0 0 900 900"><path fill="white" fill-rule="evenodd" d="M 420.0 120.5 L 422.0 120.5 L 423.0 121.5 L 429.0 121.5 L 430.0 122.5 L 434.0 122.5 L 435.0 123.5 L 438.0 123.5 L 442.0 125.5 L 445.0 125.5 L 446.0 126.5 L 451.0 127.5 L 461.0 132.5 L 463.0 132.5 L 477.0 139.5 L 479.0 141.5 L 484.0 143.5 L 486.0 145.5 L 511.0 157.5 L 519.5 164.0 L 520.5 166.0 L 520.5 277.0 L 519.5 278.0 L 519.5 315.0 L 522.0 317.5 L 524.0 316.5 L 526.0 316.5 L 532.0 313.5 L 539.0 307.5 L 540.0 307.5 L 547.5 299.0 L 549.5 294.0 L 551.5 292.0 L 555.5 284.0 L 555.5 281.0 L 556.5 280.0 L 556.5 277.0 L 557.5 276.0 L 557.5 271.0 L 558.5 270.0 L 558.5 266.0 L 548.5 257.0 L 548.5 242.0 L 543.5 237.0 L 543.5 220.0 L 544.5 219.0 L 544.5 217.0 L 549.0 212.5 L 553.0 210.5 L 558.0 209.5 L 559.0 208.5 L 562.0 208.5 L 563.0 207.5 L 569.0 207.5 L 570.0 206.5 L 576.0 206.5 L 577.0 205.5 L 582.0 205.5 L 583.0 204.5 L 584.0 205.5 L 585.0 204.5 L 598.0 204.5 L 599.0 203.5 L 600.0 204.5 L 601.0 203.5 L 622.0 203.5 L 623.0 204.5 L 625.0 203.5 L 626.0 204.5 L 638.0 204.5 L 639.0 205.5 L 646.0 205.5 L 647.0 206.5 L 651.0 206.5 L 652.0 207.5 L 655.0 207.5 L 656.0 208.5 L 658.0 208.5 L 660.0 209.5 L 664.5 214.0 L 665.5 216.0 L 665.5 226.0 L 666.5 227.0 L 666.5 235.0 L 661.5 240.0 L 661.5 253.0 L 660.5 254.0 L 660.5 256.0 L 654.0 262.5 L 653.0 262.5 L 650.5 265.0 L 650.5 273.0 L 651.5 274.0 L 651.5 279.0 L 652.5 280.0 L 653.5 285.0 L 655.5 288.0 L 655.5 290.0 L 657.5 293.0 L 657.5 295.0 L 659.5 299.0 L 661.5 301.0 L 661.5 302.0 L 672.0 312.5 L 678.0 315.5 L 680.0 317.5 L 685.0 319.5 L 687.0 321.5 L 690.0 322.5 L 692.0 324.5 L 695.0 325.5 L 705.0 334.5 L 706.0 334.5 L 719.5 349.0 L 719.5 350.0 L 722.5 353.0 L 725.5 359.0 L 729.5 364.0 L 734.5 374.0 L 734.5 376.0 L 737.5 382.0 L 737.5 384.0 L 738.5 385.0 L 738.5 388.0 L 740.5 392.0 L 740.5 396.0 L 741.5 397.0 L 741.5 401.0 L 742.5 402.0 L 742.5 407.0 L 743.5 408.0 L 743.5 414.0 L 742.5 415.0 L 743.5 417.0 L 743.5 435.0 L 742.5 436.0 L 742.5 438.0 L 743.5 439.0 L 743.5 446.0 L 742.5 447.0 L 742.5 487.0 L 741.5 488.0 L 741.5 490.0 L 742.5 491.0 L 741.5 492.0 L 741.5 519.0 L 742.5 520.0 L 742.5 524.0 L 741.5 525.0 L 741.5 540.0 L 740.5 541.0 L 741.5 542.0 L 741.5 551.0 L 740.5 552.0 L 740.5 554.0 L 741.5 555.0 L 740.5 556.0 L 741.5 558.0 L 741.5 563.0 L 740.5 564.0 L 741.5 566.0 L 740.5 567.0 L 740.5 595.0 L 739.5 596.0 L 740.5 597.0 L 740.5 616.0 L 739.5 617.0 L 739.5 646.0 L 740.5 647.0 L 740.5 651.0 L 739.5 652.0 L 739.5 668.0 L 740.5 669.0 L 740.5 673.0 L 739.5 674.0 L 739.5 681.0 L 738.5 682.0 L 738.5 710.0 L 737.5 711.0 L 737.5 719.0 L 736.5 720.0 L 736.5 723.0 L 733.5 728.0 L 733.5 730.0 L 730.5 734.0 L 732.5 736.0 L 732.5 744.0 L 731.5 746.0 L 710.0 762.5 L 708.0 762.5 L 707.0 763.5 L 704.0 763.5 L 703.0 764.5 L 701.0 764.5 L 697.0 766.5 L 694.0 766.5 L 693.0 767.5 L 691.0 767.5 L 690.0 768.5 L 688.0 768.5 L 684.0 770.5 L 681.0 770.5 L 677.0 772.5 L 672.0 772.5 L 671.0 773.5 L 665.0 773.5 L 664.0 774.5 L 659.0 774.5 L 658.0 775.5 L 652.0 775.5 L 651.0 776.5 L 646.0 776.5 L 645.0 777.5 L 639.0 777.5 L 638.0 778.5 L 633.0 778.5 L 632.0 779.5 L 631.0 778.5 L 581.0 778.5 L 580.0 777.5 L 575.0 777.5 L 574.0 776.5 L 570.0 776.5 L 569.0 775.5 L 564.0 775.5 L 563.0 774.5 L 558.0 774.5 L 557.0 773.5 L 552.0 773.5 L 551.0 772.5 L 547.0 772.5 L 546.0 771.5 L 541.0 771.5 L 540.0 770.5 L 535.0 770.5 L 532.0 768.5 L 530.0 768.5 L 527.0 766.5 L 525.0 766.5 L 520.0 763.5 L 518.0 763.5 L 513.0 760.5 L 511.0 760.5 L 508.0 758.5 L 506.0 758.5 L 504.0 757.5 L 497.0 751.5 L 496.0 751.5 L 493.0 748.5 L 492.0 748.5 L 484.0 741.5 L 483.0 741.5 L 477.5 737.0 L 476.5 735.0 L 476.5 733.0 L 475.5 732.0 L 475.5 729.0 L 474.5 728.0 L 474.5 726.0 L 473.5 725.0 L 473.5 723.0 L 471.5 719.0 L 471.5 716.0 L 470.5 715.0 L 470.5 713.0 L 469.5 712.0 L 469.5 710.0 L 468.5 709.0 L 468.5 707.0 L 466.5 703.0 L 466.5 700.0 L 463.0 695.5 L 459.0 695.5 L 458.0 696.5 L 453.0 696.5 L 452.0 697.5 L 446.0 697.5 L 445.0 698.5 L 439.0 698.5 L 438.0 699.5 L 432.0 699.5 L 431.0 700.5 L 426.0 700.5 L 425.0 701.5 L 419.0 701.5 L 418.0 702.5 L 412.0 702.5 L 411.0 703.5 L 405.0 703.5 L 404.0 704.5 L 399.0 704.5 L 398.0 705.5 L 392.0 705.5 L 391.0 706.5 L 385.0 706.5 L 384.0 707.5 L 378.0 707.5 L 377.0 708.5 L 372.0 708.5 L 371.0 709.5 L 365.0 709.5 L 364.0 710.5 L 358.0 710.5 L 357.0 711.5 L 351.0 711.5 L 350.0 712.5 L 345.0 712.5 L 344.0 713.5 L 338.0 713.5 L 337.0 714.5 L 331.0 714.5 L 330.0 715.5 L 325.0 715.5 L 324.0 716.5 L 318.0 716.5 L 317.0 717.5 L 311.0 717.5 L 310.0 718.5 L 304.0 718.5 L 303.0 719.5 L 298.0 719.5 L 297.0 720.5 L 291.0 720.5 L 290.0 721.5 L 284.0 721.5 L 283.0 722.5 L 277.0 722.5 L 276.0 723.5 L 271.0 723.5 L 270.0 724.5 L 264.0 724.5 L 263.0 725.5 L 257.0 725.5 L 256.0 726.5 L 250.0 726.5 L 249.0 727.5 L 244.0 727.5 L 243.0 728.5 L 237.0 728.5 L 236.0 729.5 L 206.0 714.5 L 202.5 711.0 L 202.5 710.0 L 204.0 708.5 L 208.0 712.5 L 210.5 710.0 L 210.5 709.0 L 206.5 705.0 L 206.5 704.0 L 204.5 702.0 L 202.5 698.0 L 195.5 690.0 L 193.5 686.0 L 188.5 680.0 L 187.5 677.0 L 184.5 674.0 L 184.5 673.0 L 181.5 670.0 L 179.5 666.0 L 176.5 663.0 L 175.5 660.0 L 171.5 655.0 L 170.5 652.0 L 168.5 650.0 L 164.5 642.0 L 163.5 633.0 L 168.5 629.0 L 163.5 621.0 L 163.5 558.0 L 162.5 557.0 L 162.5 493.0 L 161.5 492.0 L 161.5 437.0 L 160.5 436.0 L 160.5 379.0 L 159.5 378.0 L 160.5 377.0 L 159.5 376.0 L 159.5 321.0 L 158.5 320.0 L 159.5 318.0 L 158.5 317.0 L 158.5 266.0 L 157.5 265.0 L 157.5 214.0 L 156.5 213.0 L 156.5 165.0 L 155.5 164.0 L 155.5 136.0 L 157.0 134.5 L 167.0 134.5 L 168.0 133.5 L 191.0 133.5 L 192.0 132.5 L 213.0 132.5 L 214.0 131.5 L 236.0 131.5 L 237.0 130.5 L 238.0 131.5 L 239.0 130.5 L 265.0 130.5 L 266.0 129.5 L 288.0 129.5 L 289.0 128.5 L 306.0 128.5 L 307.0 127.5 L 325.0 127.5 L 326.0 126.5 L 340.0 126.5 L 341.0 125.5 L 357.0 125.5 L 358.0 124.5 L 373.0 124.5 L 374.0 123.5 L 390.0 123.5 L 391.0 122.5 L 406.0 122.5 L 407.0 121.5 L 419.0 121.5 L 420.0 120.5 Z"/></svg>
