<svg xmlns="http://www.w3.org/2000/svg" width="512" height="512" viewBox="0 0 512 512"><path fill="white" fill-rule="evenodd" d="M475.0,48.5L475.5,48.0L477.5,48.0L478.5,49.0L479.5,49.0L482.0,51.5L482.0,52.5L483.0,53.5L483.0,56.5L482.0,57.5L482.0,58.5L481.5,59.0L480.5,59.0L478.5,61.0L477.5,61.0L475.5,63.0L474.5,63.0L472.5,65.0L471.5,65.0L469.5,67.0L468.5,67.0L467.5,68.0L466.5,68.0L464.5,70.0L463.5,70.0L461.5,72.0L460.5,72.0L458.5,74.0L457.5,74.0L455.5,76.0L454.5,76.0L452.5,78.0L451.5,78.0L450.5,79.0L449.5,79.0L446.5,82.0L445.5,82.0L443.5,84.0L442.5,84.0L441.5,85.0L440.5,85.0L437.5,88.0L436.5,88.0L434.5,90.0L433.5,90.0L431.5,92.0L430.5,92.0L425.0,97.5L425.0,98.5L421.0,102.5L421.0,103.5L419.0,105.5L419.0,106.5L418.0,107.5L418.0,108.5L417.0,109.5L417.0,110.5L416.0,111.5L416.0,112.5L414.0,114.5L414.0,115.5L413.0,116.5L413.0,117.5L412.0,118.5L412.0,119.5L411.0,120.5L411.0,121.5L410.0,122.5L410.0,123.5L408.0,125.5L408.0,126.5L407.0,127.5L407.0,128.5L406.0,129.5L406.0,130.5L405.0,131.5L405.0,132.5L404.0,133.5L404.0,134.5L402.0,136.5L402.0,137.5L401.0,138.5L401.0,139.5L400.0,140.5L400.0,141.5L399.0,142.5L399.0,143.5L397.0,145.5L397.0,147.5L396.0,148.5L396.0,149.5L394.0,151.5L394.0,152.5L393.0,153.5L393.0,154.5L392.0,155.5L392.0,156.5L390.0,158.5L390.0,160.5L388.0,162.5L388.0,163.5L387.0,164.5L387.0,165.5L386.0,166.5L386.0,167.5L385.0,168.5L385.0,169.5L384.0,170.5L384.0,171.5L382.0,173.5L382.0,174.5L381.0,175.5L381.0,176.5L380.0,177.5L380.0,178.5L379.0,179.5L379.0,180.5L378.0,181.5L378.0,182.5L376.0,184.5L376.0,185.5L375.0,186.5L375.0,187.5L374.0,188.5L374.0,189.5L373.0,190.5L373.0,191.5L371.0,193.5L371.0,194.5L370.0,195.5L370.0,196.5L369.0,197.5L369.0,198.5L368.0,199.5L368.0,200.5L367.0,201.5L367.0,202.5L366.0,203.5L366.0,204.5L364.0,206.5L364.0,207.5L363.0,208.5L363.0,209.5L361.0,211.5L361.0,213.5L359.0,215.5L359.0,216.5L357.0,218.5L357.0,219.5L354.0,222.5L354.0,223.5L343.5,234.0L342.5,234.0L338.0,238.5L338.0,239.5L336.0,241.5L336.0,243.5L335.0,244.5L335.0,247.5L334.5,248.0L332.5,248.0L331.5,247.0L329.5,247.0L329.0,247.5L329.0,250.5L330.0,251.5L330.0,262.5L331.0,263.5L331.0,267.5L332.0,268.5L332.0,274.5L333.0,275.5L333.0,281.5L334.0,282.5L334.0,286.5L335.0,287.5L335.0,293.5L337.0,295.5L337.0,298.5L338.0,299.5L338.0,304.5L339.0,305.5L339.0,310.5L340.0,311.5L340.0,313.5L339.0,314.5L339.0,315.5L340.0,316.5L340.0,320.5L341.0,321.5L341.0,326.5L342.0,327.5L342.0,332.5L343.0,333.5L343.0,338.5L344.0,339.5L344.0,344.5L345.0,345.5L345.0,356.5L344.0,357.5L344.0,359.5L343.0,360.5L343.0,361.5L342.0,362.5L342.0,363.5L341.0,364.5L341.0,365.5L340.0,366.5L340.0,367.5L334.5,373.0L333.5,373.0L332.5,374.0L331.5,374.0L330.5,375.0L328.5,375.0L327.5,376.0L320.5,376.0L319.5,375.0L317.5,375.0L316.5,374.0L315.5,374.0L314.5,373.0L312.5,373.0L311.5,372.0L309.5,372.0L307.5,370.0L306.5,370.0L297.0,360.5L297.0,359.5L290.0,352.5L290.0,351.5L284.0,345.5L284.0,344.5L279.0,339.5L279.0,338.5L272.0,331.5L272.0,330.5L269.5,328.0L269.0,328.5L269.0,339.5L268.0,340.5L268.0,343.5L266.0,345.5L266.0,346.5L264.0,348.5L264.0,349.5L262.5,351.0L261.5,351.0L260.5,352.0L259.5,352.0L258.5,353.0L253.5,353.0L252.5,352.0L251.5,352.0L250.5,351.0L249.5,351.0L248.5,352.0L244.5,352.0L243.5,351.0L241.5,351.0L240.5,350.0L239.5,350.0L237.5,348.0L236.5,348.0L236.0,347.5L236.0,346.5L231.0,341.5L231.0,340.5L225.0,334.5L225.0,333.5L221.0,329.5L221.0,328.5L219.5,327.0L218.5,327.0L217.0,328.5L217.0,329.5L215.0,331.5L215.0,332.5L213.0,334.5L213.0,335.5L211.0,337.5L211.0,338.5L210.0,339.5L210.0,340.5L208.0,342.5L208.0,343.5L206.0,345.5L206.0,346.5L205.0,347.5L205.0,348.5L203.0,350.5L203.0,351.5L201.0,353.5L201.0,354.5L200.0,355.5L200.0,356.5L198.0,358.5L198.0,360.5L199.0,361.5L199.0,364.5L200.0,365.5L200.0,370.5L201.0,371.5L201.0,387.5L200.0,388.5L200.0,393.5L199.0,394.5L199.0,397.5L198.0,398.5L198.0,400.5L197.0,401.5L197.0,403.5L196.0,404.5L196.0,406.5L194.0,408.5L194.0,410.5L192.0,412.5L192.0,413.5L191.0,414.5L191.0,415.5L189.0,417.5L189.0,418.5L185.0,422.5L185.0,423.5L177.5,431.0L176.5,431.0L173.5,434.0L172.5,434.0L170.5,436.0L169.5,436.0L167.5,438.0L165.5,438.0L164.5,439.0L163.5,439.0L162.5,440.0L161.5,440.0L160.5,441.0L158.5,441.0L157.5,442.0L153.5,442.0L152.5,443.0L138.5,443.0L137.5,442.0L133.5,442.0L132.5,441.0L130.5,441.0L129.5,440.0L127.5,440.0L126.5,439.0L125.5,439.0L124.5,438.0L123.5,438.0L122.5,437.0L121.5,437.0L120.5,436.0L119.5,436.0L117.5,434.0L116.5,434.0L115.5,433.0L114.5,433.0L111.5,430.0L110.5,430.0L108.5,428.0L107.5,429.0L105.5,429.0L104.5,430.0L101.5,430.0L100.5,431.0L96.5,431.0L95.5,432.0L91.5,432.0L90.5,433.0L83.5,433.0L82.5,432.0L80.5,432.0L79.5,431.0L77.5,431.0L76.5,430.0L75.5,430.0L71.0,425.5L71.0,424.5L69.0,422.5L69.0,420.5L68.0,419.5L68.0,417.5L67.0,416.5L67.0,414.5L68.0,413.5L68.0,411.5L69.0,410.5L69.0,408.5L71.0,406.5L71.0,405.5L72.0,404.5L72.0,403.5L76.0,399.5L76.0,398.5L76.5,398.0L77.5,398.0L85.5,390.0L86.5,390.0L87.5,389.0L88.5,389.0L92.5,385.0L93.5,385.0L94.0,384.5L94.0,382.5L95.0,381.5L95.0,376.5L96.0,375.5L96.0,373.5L97.0,372.5L97.0,369.5L98.0,368.5L98.0,366.5L99.0,365.5L99.0,364.5L100.0,363.5L100.0,362.5L101.0,361.5L101.0,359.5L103.0,357.5L103.0,356.5L104.0,355.5L104.0,354.5L106.0,352.5L106.0,351.5L109.0,348.5L109.0,347.5L110.0,346.5L109.0,345.5L109.0,342.5L108.0,341.5L108.0,340.5L107.0,339.5L107.0,336.5L106.0,335.5L106.0,332.5L105.0,331.5L105.0,329.5L104.0,328.5L104.0,326.5L103.0,325.5L103.0,323.5L102.0,322.5L102.0,319.5L101.0,318.5L101.0,316.5L100.0,315.5L100.0,312.5L99.0,311.5L99.0,310.5L98.0,309.5L98.0,306.5L97.0,305.5L97.0,302.5L96.0,301.5L96.0,299.5L95.0,298.5L95.0,296.5L94.0,295.5L94.0,293.5L93.0,292.5L93.0,289.5L91.5,288.0L85.5,288.0L84.5,287.0L81.5,287.0L80.5,286.0L77.5,286.0L76.5,285.0L73.5,285.0L72.5,284.0L68.5,284.0L67.5,283.0L65.5,283.0L64.5,282.0L60.5,282.0L59.5,281.0L56.5,281.0L55.5,280.0L53.5,280.0L52.5,279.0L49.5,279.0L48.5,278.0L46.5,278.0L45.5,277.0L41.5,277.0L40.5,276.0L37.5,276.0L36.5,275.0L34.5,275.0L33.5,274.0L32.5,274.0L31.5,273.0L30.5,273.0L29.0,271.5L29.0,270.5L28.0,269.5L28.0,262.5L33.0,257.5L33.0,256.5L33.5,256.0L34.5,256.0L40.5,250.0L41.5,250.0L42.5,249.0L43.5,249.0L45.5,247.0L46.5,247.0L48.5,245.0L49.5,245.0L50.5,244.0L51.5,244.0L52.5,243.0L53.5,243.0L54.5,242.0L55.5,242.0L56.5,241.0L57.5,241.0L58.5,240.0L59.5,240.0L61.5,238.0L63.5,238.0L65.5,236.0L67.5,236.0L68.5,235.0L69.5,235.0L70.5,234.0L71.5,234.0L72.5,233.0L74.5,233.0L75.5,232.0L76.5,232.0L77.5,231.0L78.5,231.0L80.5,229.0L81.5,229.0L82.5,228.0L83.5,228.0L84.5,227.0L85.5,227.0L86.5,226.0L87.5,226.0L88.5,225.0L89.5,225.0L90.5,224.0L91.5,224.0L92.5,223.0L93.5,223.0L94.5,222.0L95.5,222.0L96.5,221.0L97.5,221.0L98.5,220.0L99.5,220.0L100.5,219.0L101.5,219.0L102.5,218.0L103.5,218.0L104.5,217.0L105.5,217.0L106.5,216.0L107.5,216.0L108.5,215.0L109.5,215.0L110.5,214.0L111.5,214.0L112.5,213.0L113.5,213.0L114.5,212.0L115.5,212.0L116.5,211.0L117.5,211.0L118.5,210.0L119.5,210.0L120.5,209.0L121.5,209.0L122.5,208.0L123.5,208.0L124.5,207.0L125.5,207.0L126.5,206.0L127.5,206.0L128.5,205.0L129.5,205.0L130.5,204.0L131.5,204.0L132.5,203.0L133.5,203.0L134.5,202.0L135.5,202.0L136.5,201.0L138.5,201.0L139.5,200.0L140.5,200.0L141.5,199.0L142.5,199.0L143.5,198.0L144.5,198.0L145.5,197.0L146.5,197.0L148.5,195.0L150.5,195.0L152.5,193.0L154.5,193.0L155.5,192.0L156.5,192.0L157.5,191.0L158.5,191.0L159.5,190.0L160.5,190.0L161.5,189.0L162.5,189.0L163.5,188.0L164.5,188.0L165.5,187.0L166.5,187.0L167.5,186.0L168.5,186.0L169.5,185.0L170.5,185.0L171.5,184.0L172.5,184.0L173.5,183.0L175.5,183.0L177.5,181.0L178.5,181.0L179.5,180.0L180.5,180.0L181.5,179.0L182.5,179.0L183.5,178.0L185.5,178.0L187.5,176.0L189.5,176.0L190.5,175.0L191.5,175.0L192.5,174.0L193.5,174.0L194.5,173.0L195.5,173.0L196.5,172.0L197.5,172.0L198.5,171.0L199.5,171.0L200.5,170.0L202.5,170.0L204.5,168.0L205.5,168.0L206.5,167.0L207.5,167.0L208.5,166.0L210.5,166.0L212.5,164.0L214.5,164.0L216.5,162.0L218.5,162.0L219.5,161.0L220.5,161.0L221.5,160.0L222.5,160.0L223.5,159.0L224.5,159.0L225.5,158.0L226.5,158.0L227.5,157.0L229.5,157.0L230.5,156.0L231.5,156.0L232.5,155.0L234.5,155.0L235.5,154.0L237.5,154.0L238.5,153.0L239.5,153.0L240.5,152.0L242.5,152.0L243.5,151.0L245.5,151.0L246.5,150.0L249.5,150.0L250.5,149.0L252.5,149.0L253.5,148.0L255.5,148.0L256.5,147.0L258.5,147.0L259.5,146.0L261.5,146.0L262.5,145.0L265.5,145.0L266.5,144.0L268.5,144.0L269.5,143.0L274.5,143.0L275.5,142.0L279.5,142.0L280.5,141.0L287.5,141.0L289.0,139.5L289.0,137.5L290.0,136.5L290.0,135.5L291.0,134.5L291.0,132.5L292.0,131.5L292.0,130.5L293.0,129.5L293.0,127.5L294.0,126.5L294.0,125.5L295.0,124.5L295.0,123.5L296.0,122.5L296.0,120.5L297.0,119.5L297.0,117.5L298.0,116.5L298.0,115.5L299.0,114.5L299.0,113.5L300.0,112.5L300.0,110.5L301.0,109.5L301.0,108.5L302.0,107.5L302.0,106.5L303.0,105.5L303.0,104.5L305.0,102.5L305.0,101.5L313.5,93.0L314.5,93.0L317.5,90.0L318.5,90.0L321.5,87.0L322.5,87.0L324.5,85.0L325.5,85.0L327.5,83.0L328.5,83.0L332.5,79.0L333.5,79.0L334.5,78.0L335.5,78.0L337.5,76.0L338.5,76.0L340.5,74.0L341.5,74.0L343.5,72.0L344.5,72.0L346.5,70.0L347.5,70.0L348.5,69.0L350.5,69.0L351.5,70.0L352.5,70.0L355.0,72.5L355.0,76.5L350.5,81.0L349.5,81.0L346.5,84.0L345.5,84.0L343.5,86.0L342.5,86.0L340.5,88.0L339.5,88.0L336.5,91.0L335.5,91.0L333.5,93.0L332.5,93.0L330.5,95.0L329.5,95.0L326.5,98.0L325.5,98.0L322.5,101.0L321.5,101.0L315.0,107.5L315.0,108.5L313.0,110.5L313.0,111.5L312.0,112.5L312.0,113.5L311.0,114.5L311.0,115.5L310.0,116.5L310.0,118.5L309.0,119.5L309.0,120.5L308.0,121.5L308.0,123.5L307.0,124.5L307.0,126.5L306.0,127.5L306.0,129.5L305.0,130.5L305.0,131.5L304.0,132.5L304.0,134.5L303.0,135.5L303.0,137.5L302.0,138.5L302.0,139.5L302.5,140.0L321.5,140.0L322.5,139.0L338.5,139.0L339.5,138.0L363.5,138.0L364.5,139.0L366.5,139.0L367.5,140.0L369.5,140.0L373.0,143.5L373.0,144.5L374.0,145.5L374.0,147.5L373.0,148.5L373.0,150.5L371.0,152.5L371.0,153.5L366.5,158.0L365.5,158.0L363.5,160.0L362.5,160.0L360.5,162.0L359.5,162.0L359.0,162.5L359.0,165.5L358.0,166.5L358.0,169.5L357.0,170.5L357.0,173.5L356.0,174.5L356.0,177.5L355.0,178.5L355.0,181.5L354.0,182.5L354.0,185.5L353.0,186.5L353.0,189.5L352.0,190.5L352.0,193.5L351.0,194.5L351.0,197.5L350.0,198.5L350.0,201.5L349.0,202.5L349.0,204.5L349.5,205.0L350.0,204.5L350.0,203.5L352.0,201.5L352.0,200.5L353.0,199.5L353.0,198.5L354.0,197.5L354.0,196.5L355.0,195.5L355.0,194.5L357.0,192.5L357.0,191.5L358.0,190.5L358.0,189.5L359.0,188.5L359.0,187.5L360.0,186.5L360.0,185.5L361.0,184.5L361.0,183.5L362.0,182.5L362.0,181.5L364.0,179.5L364.0,178.5L365.0,177.5L365.0,176.5L366.0,175.5L366.0,174.5L367.0,173.5L367.0,172.5L368.0,171.5L368.0,170.5L370.0,168.5L370.0,167.5L371.0,166.5L371.0,165.5L372.0,164.5L372.0,163.5L374.0,161.5L374.0,159.5L376.0,157.5L376.0,156.5L377.0,155.5L377.0,154.5L378.0,153.5L378.0,152.5L380.0,150.5L380.0,149.5L381.0,148.5L381.0,147.5L383.0,145.5L383.0,144.5L384.0,143.5L384.0,142.5L385.0,141.5L385.0,140.5L386.0,139.5L386.0,138.5L387.0,137.5L387.0,136.5L389.0,134.5L389.0,133.5L390.0,132.5L390.0,131.5L391.0,130.5L391.0,129.5L392.0,128.5L392.0,127.5L394.0,125.5L394.0,124.5L395.0,123.5L395.0,122.5L396.0,121.5L396.0,120.5L397.0,119.5L397.0,118.5L398.0,117.5L398.0,116.5L400.0,114.5L400.0,113.5L401.0,112.5L401.0,110.5L403.0,108.5L403.0,107.5L404.0,106.5L404.0,105.5L406.0,103.5L406.0,102.5L407.0,101.5L407.0,100.5L409.0,98.5L409.0,97.5L411.0,95.5L411.0,94.5L413.0,92.5L413.0,91.5L421.5,83.0L422.5,83.0L424.5,81.0L425.5,81.0L428.5,78.0L429.5,78.0L431.5,76.0L432.5,76.0L434.5,74.0L435.5,74.0L437.5,72.0L438.5,72.0L440.5,70.0L441.5,70.0L442.5,69.0L443.5,69.0L445.5,67.0L446.5,67.0L448.5,65.0L449.5,65.0L451.5,63.0L452.5,63.0L454.5,61.0L455.5,61.0L456.5,60.0L457.5,60.0L459.5,58.0L460.5,58.0L462.5,56.0L463.5,56.0L465.5,54.0L466.5,54.0L468.5,52.0L469.5,52.0L470.5,51.0L471.5,51.0L473.5,49.0L474.5,49.0L475.0,48.5L475.0,48.5ZM317.5,253.0L316.5,254.0L315.5,254.0L313.5,256.0L312.5,256.0L310.5,258.0L309.5,258.0L307.5,260.0L306.5,260.0L304.5,262.0L303.5,262.0L300.5,265.0L299.5,265.0L297.5,267.0L296.5,267.0L293.5,270.0L292.5,270.0L290.5,272.0L289.5,272.0L287.5,274.0L286.5,274.0L284.5,276.0L283.5,276.0L280.5,279.0L279.5,279.0L276.5,282.0L275.5,282.0L275.0,282.5L275.5,283.0L277.5,283.0L278.5,284.0L282.5,284.0L283.5,285.0L287.5,285.0L288.5,286.0L292.5,286.0L293.5,287.0L298.5,287.0L299.5,288.0L303.5,288.0L304.5,289.0L309.5,289.0L310.5,290.0L314.5,290.0L315.5,291.0L319.5,291.0L320.5,292.0L323.5,292.0L324.0,291.5L324.0,290.5L323.0,289.5L323.0,284.5L322.0,283.5L322.0,277.5L321.0,276.5L321.0,273.5L320.0,272.5L320.0,266.5L319.0,265.5L319.0,261.5L318.0,260.5L318.0,253.5L317.5,253.0L317.5,253.0ZM116.5,285.0L115.5,286.0L110.5,286.0L109.5,287.0L103.5,287.0L102.5,288.0L100.5,288.0L100.0,288.5L101.0,289.5L101.0,292.5L102.0,293.5L102.0,296.5L103.0,297.5L103.0,299.5L104.0,300.5L104.0,302.5L105.0,303.5L105.0,305.5L106.0,306.5L106.0,309.5L107.0,310.5L107.0,312.5L108.0,313.5L108.0,316.5L109.0,317.5L109.0,319.5L110.0,320.5L110.0,323.5L111.0,324.5L111.0,327.5L112.0,328.5L112.0,329.5L113.0,330.5L113.0,333.5L114.0,334.5L114.0,336.5L115.0,337.5L115.0,340.5L115.5,341.0L116.5,340.0L117.5,340.0L121.5,336.0L122.5,336.0L123.5,335.0L124.5,335.0L126.5,333.0L127.5,333.0L128.5,332.0L129.5,332.0L130.5,331.0L131.5,331.0L132.5,330.0L134.5,330.0L135.5,329.0L137.5,329.0L139.0,327.5L139.0,325.5L138.0,324.5L138.0,320.5L137.0,319.5L137.0,318.5L136.0,317.5L136.0,314.5L135.0,313.5L135.0,310.5L134.0,309.5L134.0,307.5L133.0,306.5L133.0,303.5L132.0,302.5L132.0,300.5L131.0,299.5L131.0,296.5L130.0,295.5L130.0,292.5L129.0,291.5L129.0,289.5L128.5,289.0L125.5,292.0L124.5,291.0L123.5,291.0L123.0,290.5L123.0,288.5L122.0,287.5L122.0,285.5L121.5,285.0L116.5,285.0L116.5,285.0ZM137.5,288.0L137.0,288.5L137.0,289.5L138.0,290.5L138.0,291.5L139.0,292.5L139.0,296.5L140.0,297.5L140.0,300.5L141.0,301.5L141.0,304.5L142.0,305.5L142.0,308.5L143.0,309.5L143.0,311.5L144.0,312.5L144.0,315.5L145.0,316.5L145.0,318.5L146.0,319.5L146.0,322.5L147.0,323.5L147.0,325.5L147.5,326.0L148.0,325.5L148.0,324.5L150.0,322.5L150.0,320.5L151.0,319.5L151.0,318.5L152.0,317.5L152.0,316.5L153.0,315.5L153.0,314.5L154.0,313.5L154.0,312.5L155.0,311.5L155.0,310.5L156.0,309.5L156.0,308.5L157.0,307.5L157.0,306.5L158.0,305.5L158.0,304.5L159.0,303.5L159.0,302.5L161.0,300.5L161.0,299.5L163.0,297.5L163.0,296.5L165.0,294.5L164.5,294.0L161.5,294.0L160.5,293.0L157.5,293.0L156.5,292.0L153.5,292.0L152.5,291.0L148.5,291.0L147.5,290.0L143.5,290.0L142.5,289.0L139.5,289.0L138.5,288.0L137.5,288.0L137.5,288.0ZM179.5,298.0L175.0,302.5L175.0,303.5L173.0,305.5L173.0,306.5L171.0,308.5L171.0,309.5L170.0,310.5L170.0,311.5L169.0,312.5L169.0,313.5L168.0,314.5L168.0,315.5L167.0,316.5L167.0,317.5L166.0,318.5L166.0,319.5L165.0,320.5L165.0,322.5L164.0,323.5L164.0,324.5L163.0,325.5L163.0,326.5L162.0,327.5L162.0,328.5L162.5,329.0L164.5,329.0L165.5,330.0L167.5,330.0L168.5,331.0L169.5,331.0L170.5,332.0L172.5,332.0L173.5,333.0L174.5,333.0L175.5,334.0L176.5,334.0L177.5,335.0L178.5,335.0L180.5,337.0L181.5,337.0L184.5,340.0L185.5,340.0L189.5,344.0L191.0,342.5L191.0,341.5L193.0,339.5L193.0,338.5L195.0,336.5L195.0,335.5L196.0,334.5L196.0,333.5L199.0,330.5L199.0,329.5L200.0,328.5L200.0,327.5L203.0,324.5L203.0,323.5L205.0,321.5L205.0,320.5L208.0,317.5L208.0,316.5L209.0,315.5L209.0,314.5L204.0,309.5L204.0,308.5L198.5,303.0L196.5,303.0L195.5,302.0L192.5,302.0L191.5,301.0L188.5,301.0L187.5,300.0L186.5,300.0L185.5,299.0L182.5,299.0L181.5,298.0L179.5,298.0L179.5,298.0ZM263.5,299.0L263.0,299.5L264.0,300.5L264.0,304.5L265.0,305.5L265.0,308.5L266.0,309.5L266.0,311.5L268.0,313.5L268.0,314.5L275.0,321.5L275.0,322.5L280.0,327.5L280.0,328.5L285.0,333.5L285.0,334.5L290.0,339.5L290.0,340.5L297.0,347.5L297.0,348.5L303.0,354.5L303.0,355.5L312.0,364.5L312.0,365.5L312.5,366.0L313.5,366.0L315.5,368.0L322.5,368.0L323.5,367.0L324.5,367.0L331.0,360.5L331.0,359.5L332.0,358.5L332.0,356.5L333.0,355.5L333.0,352.5L334.0,351.5L334.0,345.5L333.0,344.5L333.0,341.5L332.0,340.5L332.0,334.5L331.0,333.5L331.0,328.5L330.0,327.5L330.0,323.5L329.0,322.5L329.0,316.5L328.0,315.5L328.0,313.5L325.5,311.0L323.5,311.0L322.5,310.0L317.5,310.0L316.5,309.0L314.5,309.0L313.5,308.0L308.5,308.0L307.5,307.0L303.5,307.0L302.5,306.0L299.5,306.0L298.5,305.0L294.5,305.0L293.5,304.0L289.5,304.0L288.5,303.0L285.5,303.0L284.5,302.0L279.5,302.0L278.5,301.0L274.5,301.0L273.5,300.0L270.5,300.0L269.5,299.0L263.5,299.0L263.5,299.0ZM246.5,303.0L246.0,303.5L246.0,308.5L244.5,310.0L242.5,310.0L239.5,307.0L238.5,307.0L237.5,308.0L236.5,308.0L234.5,310.0L233.5,310.0L225.0,318.5L226.0,319.5L226.0,320.5L230.0,324.5L230.0,325.5L235.0,330.5L235.0,331.5L240.0,336.5L240.0,337.5L244.0,341.5L244.0,342.5L248.5,347.0L251.5,347.0L255.0,343.5L255.0,342.5L256.0,341.5L256.0,339.5L257.0,338.5L257.0,335.5L258.0,334.5L258.0,325.5L257.0,324.5L257.0,320.5L256.0,319.5L256.0,315.5L255.0,314.5L255.0,311.5L254.0,310.5L254.0,309.5L247.5,303.0L246.5,303.0L246.5,303.0ZM94.5,402.0L91.5,405.0L90.5,405.0L84.0,411.5L84.0,412.5L82.0,414.5L82.0,415.5L83.5,417.0L92.5,417.0L93.5,416.0L97.5,416.0L99.0,414.5L98.0,413.5L98.0,411.5L97.0,410.5L97.0,408.5L96.0,407.5L96.0,405.5L95.0,404.5L95.0,402.5L94.5,402.0L94.5,402.0Z"/></svg>