<svg xmlns="http://www.w3.org/2000/svg" viewBox="0 0 1024 1536" width="1024" height="1536"><path fill="white" d="M 152.0,62.5 L 161.0,62.5 L 165.0,65.5 L 174.0,65.5 L 175.0,66.5 L 234.0,66.5 L 235.0,67.5 L 287.0,68.5 L 288.0,69.5 L 365.0,70.5 L 366.0,71.5 L 391.0,71.5 L 392.0,72.5 L 410.0,72.5 L 411.0,73.5 L 429.0,73.5 L 430.0,74.5 L 485.0,72.5 L 486.0,71.5 L 576.0,71.5 L 577.0,70.5 L 703.0,70.5 L 704.0,71.5 L 705.0,70.5 L 706.0,71.5 L 753.0,72.5 L 755.0,73.5 L 756.0,72.5 L 800.0,70.5 L 801.0,69.5 L 860.0,68.5 L 863.0,65.5 L 867.0,66.5 L 869.0,65.5 L 888.0,65.5 L 889.5,67.0 L 887.5,69.0 L 891.5,73.0 L 890.5,99.0 L 892.5,101.0 L 892.5,159.0 L 890.5,161.0 L 890.5,171.0 L 892.5,173.0 L 892.5,213.0 L 889.5,218.0 L 890.5,221.0 L 887.5,224.0 L 888.5,227.0 L 882.5,235.0 L 882.5,238.0 L 880.5,240.0 L 880.5,248.0 L 883.5,251.0 L 883.5,256.0 L 884.5,257.0 L 883.5,258.0 L 883.5,269.0 L 880.5,272.0 L 882.5,275.0 L 880.5,277.0 L 880.5,283.0 L 882.5,285.0 L 882.5,296.0 L 881.5,299.0 L 878.5,302.0 L 878.5,304.0 L 880.5,306.0 L 879.5,313.0 L 876.5,315.0 L 878.5,318.0 L 878.5,323.0 L 874.5,326.0 L 874.5,329.0 L 876.5,331.0 L 875.5,335.0 L 874.0,334.5 L 872.5,336.0 L 874.5,339.0 L 874.5,344.0 L 870.5,347.0 L 870.5,349.0 L 872.5,351.0 L 872.5,354.0 L 868.5,357.0 L 870.5,360.0 L 869.5,365.0 L 866.5,367.0 L 866.5,369.0 L 868.5,371.0 L 868.5,374.0 L 864.5,377.0 L 864.5,379.0 L 866.5,381.0 L 866.5,384.0 L 863.5,388.0 L 864.5,393.0 L 860.5,397.0 L 861.5,405.0 L 858.5,409.0 L 858.5,413.0 L 860.5,415.0 L 860.5,421.0 L 856.5,425.0 L 856.5,431.0 L 858.5,433.0 L 858.5,438.0 L 857.5,443.0 L 854.5,446.0 L 856.5,449.0 L 855.5,453.0 L 856.5,463.0 L 855.5,468.0 L 852.5,470.0 L 852.5,480.0 L 854.5,482.0 L 854.5,491.0 L 853.5,492.0 L 853.5,499.0 L 850.5,501.0 L 850.5,505.0 L 852.5,507.0 L 851.5,511.0 L 852.5,513.0 L 852.5,536.0 L 850.5,538.0 L 850.5,544.0 L 852.5,546.0 L 852.5,554.0 L 850.5,556.0 L 850.5,560.0 L 853.5,562.0 L 853.5,568.0 L 854.5,569.0 L 854.5,575.0 L 852.5,577.0 L 852.5,579.0 L 854.5,581.0 L 852.5,583.0 L 855.5,588.0 L 856.5,593.0 L 856.5,603.0 L 854.5,605.0 L 854.5,611.0 L 857.5,614.0 L 858.5,619.0 L 858.5,627.0 L 856.5,629.0 L 856.5,634.0 L 859.5,638.0 L 859.5,643.0 L 860.5,644.0 L 860.5,653.0 L 858.5,655.0 L 860.5,658.0 L 860.5,663.0 L 858.5,665.0 L 858.5,668.0 L 861.5,672.0 L 861.5,682.0 L 862.5,683.0 L 862.5,740.0 L 860.5,742.0 L 860.5,770.0 L 861.5,771.0 L 861.5,786.0 L 860.5,787.0 L 861.5,788.0 L 860.5,852.0 L 862.5,854.0 L 862.5,873.0 L 861.5,874.0 L 862.5,875.0 L 862.5,901.0 L 861.5,902.0 L 861.5,929.0 L 858.5,933.0 L 858.5,942.0 L 860.5,944.0 L 860.5,957.0 L 858.5,959.0 L 858.5,970.0 L 860.5,972.0 L 859.5,1014.0 L 856.5,1019.0 L 856.5,1038.0 L 858.5,1040.0 L 856.5,1042.0 L 856.5,1109.0 L 859.5,1112.0 L 860.5,1115.0 L 860.5,1120.0 L 859.5,1121.0 L 860.5,1124.0 L 858.5,1126.0 L 858.5,1128.0 L 861.5,1132.0 L 861.5,1147.0 L 862.5,1148.0 L 862.5,1154.0 L 860.5,1156.0 L 860.5,1165.0 L 864.5,1181.0 L 864.5,1184.0 L 862.5,1186.0 L 862.5,1205.0 L 863.5,1206.0 L 862.5,1235.0 L 863.5,1236.0 L 863.5,1241.0 L 861.5,1243.0 L 861.5,1255.0 L 860.5,1256.0 L 860.5,1273.0 L 861.5,1274.0 L 860.5,1276.0 L 860.5,1289.0 L 864.5,1293.0 L 862.5,1295.0 L 866.5,1299.0 L 865.5,1300.0 L 865.5,1305.0 L 866.5,1306.0 L 867.5,1323.0 L 868.5,1324.0 L 870.5,1343.0 L 875.5,1368.0 L 875.5,1391.0 L 872.5,1403.0 L 866.0,1413.5 L 851.0,1413.5 L 850.0,1414.5 L 175.0,1414.5 L 174.0,1413.5 L 159.0,1413.5 L 157.5,1412.0 L 152.5,1402.0 L 149.5,1392.0 L 148.5,1372.0 L 150.5,1365.0 L 151.5,1353.0 L 154.5,1344.0 L 158.5,1323.0 L 159.5,1298.0 L 160.5,1293.0 L 163.5,1291.0 L 163.5,1284.0 L 161.5,1282.0 L 161.5,1274.0 L 162.5,1269.0 L 164.5,1267.0 L 163.5,1266.0 L 164.5,1262.0 L 163.5,1261.0 L 163.5,1255.0 L 165.5,1253.0 L 165.5,1215.0 L 164.5,1214.0 L 165.5,1200.0 L 164.5,1199.0 L 164.5,1193.0 L 162.5,1191.0 L 163.5,1190.0 L 162.5,1189.0 L 162.5,1154.0 L 161.5,1153.0 L 161.5,1140.0 L 162.5,1139.0 L 161.5,1136.0 L 162.5,1135.0 L 161.5,1133.0 L 161.5,1123.0 L 163.5,1121.0 L 163.5,1074.0 L 162.5,1073.0 L 163.5,1072.0 L 163.5,1004.0 L 161.5,1002.0 L 163.5,999.0 L 163.5,983.0 L 161.5,981.0 L 161.5,979.0 L 163.5,977.0 L 161.5,975.0 L 163.5,973.0 L 163.5,950.0 L 161.5,948.0 L 163.5,945.0 L 163.5,895.0 L 161.5,893.0 L 163.5,891.0 L 163.5,869.0 L 161.5,867.0 L 163.5,865.0 L 163.5,857.0 L 161.5,855.0 L 162.5,854.0 L 161.5,853.0 L 162.5,852.0 L 161.5,845.0 L 163.5,843.0 L 163.5,830.0 L 161.5,828.0 L 161.5,824.0 L 163.5,822.0 L 163.5,785.0 L 161.5,783.0 L 161.5,771.0 L 162.5,770.0 L 162.5,761.0 L 165.5,756.0 L 165.5,731.0 L 163.5,729.0 L 163.5,716.0 L 164.5,715.0 L 164.5,705.0 L 167.5,701.0 L 167.5,694.0 L 165.5,692.0 L 165.5,685.0 L 167.5,683.0 L 167.5,680.0 L 165.5,678.0 L 166.5,656.0 L 169.5,652.0 L 169.5,635.0 L 167.5,633.0 L 167.5,619.0 L 168.5,618.0 L 167.5,613.0 L 168.5,606.0 L 167.5,605.0 L 168.5,600.0 L 171.5,597.0 L 171.5,589.0 L 169.5,587.0 L 169.5,585.0 L 170.5,584.0 L 170.5,579.0 L 173.5,574.0 L 174.5,559.0 L 176.5,551.0 L 176.5,540.0 L 177.5,539.0 L 176.5,536.0 L 176.5,511.0 L 177.5,510.0 L 177.5,497.0 L 178.5,496.0 L 178.5,476.0 L 175.5,460.0 L 174.0,458.5 L 172.5,459.0 L 173.5,455.0 L 169.5,449.0 L 171.5,444.0 L 170.0,442.5 L 168.5,443.0 L 167.5,441.0 L 168.5,436.0 L 165.5,432.0 L 167.5,426.0 L 166.0,424.5 L 164.5,425.0 L 163.5,421.0 L 165.5,419.0 L 163.5,417.0 L 163.5,414.0 L 161.5,411.0 L 161.5,409.0 L 163.5,407.0 L 163.5,403.0 L 160.5,401.0 L 159.5,397.0 L 160.5,394.0 L 157.5,389.0 L 159.5,384.0 L 155.5,381.0 L 156.5,377.0 L 155.5,375.0 L 156.5,374.0 L 153.5,370.0 L 154.5,369.0 L 153.5,367.0 L 155.5,365.0 L 151.5,361.0 L 151.5,357.0 L 153.5,354.0 L 152.0,352.5 L 151.0,353.5 L 149.5,351.0 L 149.5,349.0 L 151.5,347.0 L 151.5,343.0 L 147.5,339.0 L 147.5,337.0 L 149.5,335.0 L 149.5,332.0 L 145.5,327.0 L 145.5,324.0 L 147.5,322.0 L 147.5,320.0 L 146.0,318.5 L 145.0,319.5 L 143.5,317.0 L 145.5,314.0 L 145.5,310.0 L 144.0,308.5 L 143.0,309.5 L 141.5,307.0 L 141.5,303.0 L 143.5,301.0 L 143.5,299.0 L 139.5,295.0 L 139.5,291.0 L 141.5,288.0 L 138.5,286.0 L 137.5,283.0 L 138.5,278.0 L 137.5,277.0 L 139.5,275.0 L 139.5,273.0 L 136.5,270.0 L 135.5,267.0 L 135.5,264.0 L 137.5,262.0 L 137.5,258.0 L 133.5,253.0 L 133.5,249.0 L 135.5,247.0 L 135.5,238.0 L 132.5,235.0 L 132.5,227.0 L 131.5,226.0 L 131.5,213.0 L 133.5,211.0 L 131.5,209.0 L 133.5,207.0 L 133.5,205.0 L 130.5,203.0 L 130.5,198.0 L 129.5,197.0 L 129.5,177.0 L 131.5,175.0 L 131.5,173.0 L 128.5,170.0 L 127.5,167.0 L 127.5,163.0 L 129.5,161.0 L 129.5,155.0 L 126.5,152.0 L 125.5,149.0 L 125.5,141.0 L 127.5,139.0 L 127.5,131.0 L 126.5,130.0 L 127.5,128.0 L 124.5,125.0 L 123.5,121.0 L 123.5,115.0 L 124.5,112.0 L 127.5,109.0 L 127.5,107.0 L 125.5,105.0 L 125.5,102.0 L 129.5,99.0 L 129.5,92.0 L 125.5,85.0 L 125.5,78.0 L 127.5,76.0 L 127.5,69.0 L 126.5,68.0 L 128.5,66.0 L 127.5,64.0 L 130.0,63.5 L 133.0,65.5 L 135.0,63.5 L 145.0,64.5 L 152.0,62.5 Z"/></svg>
