<svg xmlns="http://www.w3.org/2000/svg" width="225" height="225" viewBox="0 0 225 225"><path fill="white" fill-rule="evenodd" d="M178.0,19.5L178.5,19.0L191.5,19.0L192.5,20.0L195.5,20.0L196.5,21.0L198.5,21.0L199.5,22.0L201.5,22.0L202.5,23.0L203.5,23.0L204.5,24.0L205.5,24.0L207.5,26.0L208.5,26.0L214.0,31.5L212.5,33.0L208.5,33.0L207.5,34.0L205.5,34.0L204.5,35.0L201.5,35.0L200.5,36.0L197.5,36.0L196.5,37.0L194.5,37.0L193.5,38.0L191.5,38.0L190.5,39.0L188.5,39.0L187.5,40.0L186.5,40.0L185.5,41.0L183.5,41.0L182.5,42.0L180.5,42.0L179.5,43.0L178.5,43.0L177.5,44.0L175.5,44.0L174.5,45.0L173.5,45.0L172.5,46.0L171.5,46.0L170.5,47.0L168.5,47.0L166.5,49.0L165.5,49.0L164.5,50.0L163.5,50.0L162.5,51.0L161.5,51.0L159.5,53.0L158.5,53.0L156.5,55.0L155.5,55.0L151.5,59.0L150.5,59.0L135.0,74.5L135.0,75.5L134.5,76.0L133.5,76.0L133.0,76.5L133.0,77.5L130.0,80.5L130.0,81.5L129.5,82.0L128.5,82.0L127.0,83.5L127.0,84.5L123.0,88.5L123.0,89.5L116.0,96.5L116.0,97.5L112.0,101.5L112.0,102.5L104.0,110.5L104.0,111.5L98.0,117.5L98.0,118.5L93.0,123.5L93.0,124.5L85.0,132.5L85.0,133.5L82.0,136.5L82.0,137.5L75.0,144.5L75.0,145.5L69.0,151.5L69.0,152.5L64.0,157.5L64.0,158.5L59.0,163.5L59.0,164.5L58.5,165.0L53.5,165.0L52.5,166.0L49.5,166.0L49.0,166.5L49.0,167.5L46.5,170.0L45.5,170.0L44.5,171.0L42.5,171.0L36.0,177.5L36.0,178.5L29.0,185.5L29.0,186.5L24.0,191.5L24.0,192.5L21.0,195.5L21.0,196.5L22.0,197.5L22.0,199.5L17.5,204.0L10.5,204.0L8.0,201.5L8.0,200.5L7.0,199.5L7.0,193.5L8.0,192.5L8.0,191.5L13.0,186.5L13.0,185.5L18.0,180.5L18.0,179.5L22.0,175.5L22.0,174.5L22.5,174.0L23.5,174.0L26.0,171.5L26.0,170.5L31.0,165.5L31.0,164.5L34.0,161.5L34.0,160.5L37.5,157.0L38.5,157.0L44.0,151.5L44.0,150.5L48.0,146.5L48.0,145.5L55.0,138.5L55.0,137.5L59.0,133.5L59.0,132.5L64.0,127.5L64.0,126.5L69.0,121.5L69.0,120.5L75.0,114.5L75.0,113.5L79.0,109.5L79.0,108.5L84.0,103.5L84.0,102.5L88.0,98.5L88.0,97.5L94.0,91.5L94.0,90.5L98.0,86.5L98.0,85.5L104.0,79.5L104.0,78.5L108.0,74.5L108.0,73.5L110.0,71.5L110.0,70.5L116.0,64.5L116.0,63.5L120.0,59.5L120.0,58.5L124.0,54.5L124.0,53.5L140.5,37.0L141.5,37.0L146.5,32.0L147.5,32.0L149.5,30.0L150.5,30.0L151.5,29.0L152.5,29.0L154.5,27.0L155.5,27.0L156.5,26.0L157.5,26.0L158.5,25.0L159.5,25.0L160.5,24.0L161.5,24.0L162.5,23.0L165.5,23.0L166.5,22.0L167.5,22.0L168.5,21.0L172.5,21.0L173.5,20.0L177.5,20.0L178.0,19.5L178.0,19.5Z"/></svg>